/* XPM */
static char *e865429bf61c49fa9d9428fd3f45aae9wldRA3yU5S0GfOqf[] = {
/* columns rows colors chars-per-pixel */
"64 64 9 1 ",
"  c black",
". c #426E36",
"X c #65AA52",
"o c #81C641",
"O c #A6F160",
"+ c #CAFF98",
"@ c #E4FE97",
"# c #FCFFAD",
"$ c #EAFFD6",
/* pixels */
"                                                                ",
"                                                                ",
"                                                                ",
"                                                                ",
"                                           ....                 ",
"                           XXXXX           $O...                ",
"                          XXXXXXXX$XXXXXX     X.                ",
"                          XXXXXXXX$XXXXXXX    OX                ",
"                        XXX..XoooooXXXXXXXXX                    ",
"                       XX..ooooXXXXXX...XXXXX                   ",
"                     XXX..oo....XXXXX$$OO.XXXXX                 ",
"                    XXXoooo...OOXXXXXX$XX..XXXXX                ",
"                    XXoo$....OOXXXXXXXXXXXXXXXXXXX              ",
"                   XXXo$o.OOOXXXXXXXXXXXX###XXXXXXXX            ",
"                   XXX$$...OXXXXXXXXXXXXXXX##XXXXXXX            ",
"        ..X      XXXX$o...OXXXX###XXXXXXXXoX##XXXXXXX           ",
"       ..XX     XXXX$$X..OXXXXXXXXXXXXXXXXooXXXXXXXXX           ",
"       .XX    XXXXX$$X..OXXXXXXXXX.......XXXoo.XXXXXXX          ",
"       .O    XXXXX$$X..OXXXXXXXXX..........XXooo.XX$XX          ",
"       OO    XXXX$$$..OXXXXXXXXX....oooo....XXooo.X$XXX         ",
"       O    XXXXXX...OXXXXXXXXX....$$$oooo....Xoo..X$XXX        ",
"           XXXXX....OXXXXXXX.....oOOO$Ooooo....Xoo.X$$$X        ",
"           XXXX....OOOXXXX...OOO.OOXXXXXooo.....oo..X$$X        ",
"           XXX...XXOXXXXX...OOOOOXXXXXX$$ooo....XXX.X$$XX       ",
"          XXX...XXOXXXXX...OOOOOXXXXXXXX$oooo...XXXX.$$XX       ",
"         XXX...XXOOXXXX...OOXXXXXXXXXXXX$OoooX..XXXX.$$XX       ",
"        XXXX..XOOOXXXXX.OOXXXXXOOXX$$X$XXOooooX..XXX$$$XXX      ",
"        XXX.@.XOOXXXXX..OXXX.oOOXXXXX$$$XXOXooX..XXX$$$XXX      ",
"      XXXXX.@XXXOXXXX.OOXXX.ooOXXXXXX$$$XXOOooX..XXX$$$XXXX     ",
"      XXXX..@XXXOXXX..O.XX..oOXXXX..XX$$XXXOXoX..XXX$$XXXXX     ",
"     XXooX..XXXXXXXX.XOXXX.oOOXX......$$XXXXXo...X#X$XXXXXX     ",
"     XXooX..XX@XXXX..XXXX..oXXX...X....XXXXXXX..XX#XXXX.XXX     ",
"     XoooX..XX@#XXX.XXXXX.ooXXX..oOX....XXXXXX.XX##XXX..XXX     ",
"     XoooX..XX@#XXX.XXXXX..o#XX..OOXXX..XXXXXXXXX#OoXX..XXX     ",
"     XoooX..XXX@XXX.XXXXX..o#XX..OOXXX..XXXXooXXXOOXX..oXXX     ",
"     XooXX...XX@@XX.ooXXX...##XX.o$$$X..XXXXXoXXXOoXX..oXXX     ",
"     XooXXX..XXX@XX..ooXX....XXXXXXX$XXOOXXXXOXOOOoXX.ooXX      ",
"     Xo$$XX....XXXXX.XoXXX....$$XXXXXXXOOXXX##oOOoX...o.XX      ",
"     XXo$oXX...XXXXXX.XoXXX....$$$$...XOOXXXXOoOOXX..o.XX       ",
"      Xo$$XXXXXXXXXXX..XooXX..........OOOXXXOOOOoX..ooXX        ",
"      XXo$$XXXXX$XXXXX..oooooX......XXOOXXXXOoOoX..ooXXX        ",
"       XXo$$XXXoXXXXXXXX.ooooXXXXXXXXOOOXXXXOoOoX.ooXXXX        ",
"        XXooX..ooXXX$XXXXXooXXXXXXXXOOOXX..XOooXX.oXXXX         ",
"          XXXX..ooOXXXXXXXXXXXXXXXXOOOXXX..OOX.X.##XXX          ",
"           XXXX.ooOOXXXXXXXXXXXXXXOOOXX..XXXo.XXo#XXX           ",
"            XXX...oOXXXXXXXXXXXOOOOOXX...XXoo.XXXXXXX           ",
"             XXX..ooOOXXXX..XXXXXXXXX...XXX...XXXXXX            ",
"             XXXX..ooOOXXX.............XXX...XXXXXX             ",
"      OO      XXXX...oO+XXX...........XXXX...XXXXX              ",
"      XO       XXXX...X+$+XXXXXXXXXXXXXXX...XXXXX               ",
"      XXO       XXXXX...o$$+$XXXXXXXXXXX...XXXXX    X$$         ",
"      ..XXX      XXXXXX..XXXXXXXXXXX$....XXXXXXX    X..         ",
"       ..XX      XXXXXXXXXXXXXXXXXXXXXXXXXXXX      X..          ",
"         .X       XXXXXXXXXXXXXXXXXXXXXXXX         ...          ",
"         .         XXXXXXXX$$$$XXXXX               ..           ",
"                     XXXXXXXXXXXX                        OO     ",
"                                                        OOO     ",
"                                                       OOXX     ",
"                                                     XXOX       ",
"                                                 XXXXX...       ",
"                                                 XXXX..         ",
"                                                                ",
"                                                                ",
"                                                                "
};
