/* XPM */
static char *_2b4aa77ce8c4a95ff6e730a96f92b86WZEqwP58tM8DlKPv[] = {
/* columns rows colors chars-per-pixel */
"64 64 19 1 ",
"  c black",
". c #23211E",
"X c #2E2720",
"o c #323027",
"O c #43423E",
"+ c #957765",
"@ c #9D8761",
"# c #C48668",
"$ c #CDB188",
"% c #89C8AA",
"& c #E6C487",
"* c #D1C9A3",
"= c #E9D9B6",
"- c #FCF8A3",
"; c #89C8C4",
": c #DEDAC1",
"> c #EBE6CC",
", c #CCE5EB",
"< c #D5E4E8",
/* pixels */
"                                                                ",
"                                                                ",
"                                                                ",
"                                                          -     ",
"                                                                ",
"                             ;     ;                            ",
"                              ;   ;                             ",
"                         %   ;;; ;;;  %                         ",
"                          ;;;;;;;;;; ;                          ",
"                          ;;;;;;;;;;;;                          ",
"                           ;;*******;;  %                       ",
"                        %  ;*********; %                        ",
"                         ;;;*********;;                         ",
"                          ;;*;;;;;;*;;;                         ",
"                   -    ;;;;*********;;;                        ",
"                         ;;**::**::*;;;                         ",
"                          ;**:.**.:**;                          ",
"                       ;  ;**$$**$$**;  ;                       ",
"                        ;;;;********;;;;                        ",
"                          ;;**####**;;                          ",
"                          ;;*****<**;;                          ",
"                         ;   ******   ;                         ",
"                               $$                               ",
"                           >>>>**>>>>                           ",
"                         >>>>>****>>>>>                         ",
"                        >>>>>>,,,,>>>>>>                        ",
"                       >>=>>>>,,,,>>>>>>>                       ",
"                      >>>=>>>>,,,,>>>>=>>                       ",
"                     >>>==>>>>,,,,>>>>=>>>         -            ",
"                    >>>>= >>>>,,,,>>>>=>>>>                     ",
"                   >>>>>  >>>>,,,,>>>> =>>>>                    ",
"                  >>>>>   >>>>,,,,>>>>  >>>>>                   ",
"                >>>>>>    >>>>,,,,>>>>   >>>>                   ",
"               >>>>>>     >>>>,,,,>>>>    >>>>                  ",
"              >>>>>>      >>>>,,,,>>>>    >>>>>                 ",
"             >>>>>>       >>>>,,,,>>>>    >>>>>>                ",
"             **>>>        >>>>,,,,>>>>     >>>>*                ",
"            ****>>        >>>>X&&X>>>>      >>***               ",
"            ****>         >>>>X&&X>>>>      >****               ",
"            ** *         >>>>>@+@@>>>>       * **               ",
"                         >>>>>@+@@@>>>>                         ",
"   -                     >>>>>@+@@@>>>>>                        ",
"                        >>>>>>@+@@@+>>>>                        ",
"                       >>>>>>>++++@+>>>>>                       ",
"                      >>>>>>>@@  @@@>>>>>>                      ",
"                      >>>>>>>@@  @@@>>>>>>                      ",
"                    >>>>>>>>@@@  @@@+>>>>>>                     ",
"                   >>>>>>>>+@@@  @@@+  >>>>>                    ",
"                           +@@@  @@@+                           ",
"                           +@@@  @@@+                           ",
"                           +@@@  @@@@@                          ",
"                          @@@@@  @@@@@                          ",
"                          @@@@@  @@@@@                          ",
"                          @@@@@  @@@@@                          ",
"                          @@@@@  @@@@@                          ",
"                          @@@@@  @@@@@                          ",
"                -         @@@@@  @@@@@                          ",
"                           $$$    $$$                           ",
"                           ***    ***                           ",
"                          OOOO    OOO                           ",
"                         OOOOOO  OOOOOO               -         ",
"                        OOOOOOO  OOOOOOOO                       ",
"                       OOOOOOOO  OOOOOOOOO                      ",
"                       oooooooo  ooooooooo                      "
};
