/* XPM */
static char *_36f76d3c73b41d4e167c36bf6e6f531rdpM8NYz9a52UhLH[] = {
/* columns rows colors chars-per-pixel */
"64 64 15 1 ",
"  c #0A090A",
". c #5F4A3B",
"X c #64594E",
"o c #D3A779",
"O c #EDDB6E",
"+ c #4C509E",
"@ c #D3A896",
"# c #E8C899",
"$ c #CFC7BB",
"% c #EDCABB",
"& c #FCF8A3",
"* c #C0CAD5",
"= c #E9D9C9",
"- c #EFE4D5",
"; c #F8FBFE",
/* pixels */
"                                                                ",
"                                                                ",
"                                                                ",
"                                                                ",
"                                                                ",
"                                                           &    ",
"                                                                ",
"                                 ....                           ",
"                             ..........                         ",
"                            .............                       ",
"                          ................                      ",
"                          .................                     ",
"                        ...................                     ",
"                        ....................                    ",
"                        ......########......                    ",
"                        .....##########.....                    ",
"                        ....############....                    ",
"                        ...#############....                    ",
"                        ...##oooo##oooo##...                    ",
"                        ..@##############@.                     ",
"            &           ..@##############@.                     ",
"                          @##oooo##oooo##@                      ",
"                           ##====##====##                       ",
"                           ###==X##X==###                       ",
"                            ############                        ",
"                           OO##########OO                       ",
"                          OOOOO######OOOOO                      ",
"                         OOOOOOOOOOOOOOOOOO                     ",
"                         OOOOOOOOOOOOOOOOOO                     ",
"                         OOOOOOOOOOOOOOOOOO                     ",
"                         OOOOOOOOOOOOOOOOOO                     ",
"                         OOOOOO-------OOOOO                     ",
"                         OO@@OO-------O@OOO                     ",
"                          @@@@O-------@@@@                      ",
"                           @@##%$$$$$###@                       ",
"                            @##-------#                         ",
"                             O##-----##                         ",
"                             OOOOOOOOOO                         ",
"                             OOOOOOOOOO                         ",
"                &            OOOOOOOOOO                         ",
"                             OOOOOOOOOO                         ",
"                             ++++++++++                         ",
"                             ++++++++++                         ",
"                             ++++  ++++                         ",
"                              +++  +++                          ",
"                              +++  +++                          ",
"                              +++  +++                          ",
"                              +++  +++                          ",
"                              +++  +++                          ",
"                              +++  +++                          ",
"                              +++  +++                          ",
"                              +++  +++                          ",
"                              +++  +++                          ",
"                              +++  +++                  &       ",
"                              +++  +++                          ",
"       &                       @@  @@                           ",
"                               ##  ##                           ",
"                              ;;;  ;;;                          ",
"                            ;;;;;  ;;;;;                        ",
"                            *****  *****                        ",
"                                                                ",
"                                                                ",
"                                                                ",
"                                                                "
};
