/* XPM */
static char *_8d1737ca5eb4cd2a2ba6a143f7592b8Yd4MA03oD5lMm6PN[] = {
/* columns rows colors chars-per-pixel */
"64 64 18 1 ",
"  c black",
". c #101010",
"X c #1E2630",
"o c #1E3030",
"O c #243F27",
"+ c #4E3B33",
"@ c #274630",
"# c #274646",
"$ c #2F4644",
"% c #507B51",
"& c #506664",
"* c #AF3A42",
"= c #648A73",
"- c #419E88",
"; c #6488B5",
": c #7FC69B",
"> c #D0EDD8",
", c #C1D8F5",
/* pixels */
"                                                                ",
"                                                                ",
"                                                                ",
"                                                                ",
"                                                                ",
"                                                                ",
"                                                                ",
"                               $$$$                             ",
"                             $$oooo$$                           ",
"                           $$oooooooo$$$                        ",
"                         $$ooooooooooooo$$                      ",
"                       $$ooooooooooooooooo$$$                   ",
"                     $$oooooooooooooooooooooo$$$                ",
"                  $$$ooooooooooooooooooooooooooo$$              ",
"                $$oooooo;;;;;;;;;;;;;;;;oooooooooo$$$           ",
"              $$oooooo;;;;;;;;;;;;;;;;;;;;ooooooooooo$$         ",
"            $$oooooooo;;,,,,,,,,,,,,,,,,;;ooooooooooooo$        ",
"          $$oooooooXXXX;;;;;;;;;;;;;;;;;;XXXXooooooooo$$        ",
"        $$oooooooooXXXX;;;;;;;;;;;;;;;;;XXXXXooooooo$$o$        ",
"       $o$$ooooooooooXXXXXXXXXXXXXXXXXXXXXXooooooo$$ooo$        ",
"       $ooo$$oooooooooooooXXXXXXXXXXXXXooooooooo$$ooooo$        ",
"       $ooooo$$ooooooooooooooooooooooooooooooo$$ooooooo$        ",
"       $o&ooooo$$oooooooooooooooooooooooooooo$ooooooooo$        ",
"       $o&&oooooo$$oooooooooooooooooooooooo$$oooooooooo$        ",
"       $o&#&&oooooo$$$ooooooooooooooooooo$$oooooooooooo$        ",
"       $o&###&oooooooo$$ooooooooooooooo$$oooooooooooooo$        ",
"       $o&###&oooooooooo$$ooooooooooo$$oooooooooooooooo$        ",
"       $o&###&oooooooooooo$$ooooooo$$oooooooooooooooooo$        ",
"       $o&####&ooooooooooooo$$$o$$$oooooooooooooooooooo$        ",
"       $o&####&oooooooooooooooo$ooooooooooooooooooooooo$        ",
"       $oo&####&&oooooooooooooo$ooooo@@oooooooooooooooo$        ",
"       $ooo&#####&&ooo&&&&ooooo$ooo@@@@@ooooooooooooooo$        ",
"       $ooo&#######&&&####&&&oo$ooo@@@@@@oooooooooooooo$        ",
"       $ooo&################&oo$oo@@@---@@ooooooooooooo$        ",
"       $ooo&####::::########&oo$oo@@--%@@@@@ooooooooooo$        ",
"       $ooo&###:::::::######&oo$oo@@-%>.%O+@@@@@@@ooooo$        ",
"       $ooo&##:::::::::#####&oo$oo@--%>>%++@@@@@@@@@ooo$        ",
"       $ooo&##::=:::=::#####&oo$oo@->.%%%*%@@@@@OOO@@oo$        ",
"       $ooo&##::=:::=::####&ooo$oo@@>>%%+*%%%%%%@@@@@@o$        ",
"       $ooo&##::=:::=::###&oooo$oo@@@O@++%%%%%%%%%%%@@o$        ",
"       $oo&###::=:::=:::##&oooo$ooo@@@@@%%%%%%%%%%%%@@@$        ",
"       $o&####::=====:::##&oooo$ooooo@@@@@@%%%%%%@@@@@@$        ",
"       $o&####::::=:::::##&oooo$oooooo@@@@@@@@@@@OO@@@o$        ",
"       $o&####::::=:::::##&oooo$oooooooo@@@O@@@@@@@@@@o$        ",
"       $o&#####:::=:::::##&oooo$oooooooooo@OO@@@@@@@@oo$        ",
"       $o&#####:::=::::###&oooo$ooooooooooooooooooooooo$        ",
"       $o&#######:::::####&oooo$ooooooooooooooooooooo$$         ",
"       $oo&&##&&##########&oooo$oooooooooooooooooooo$           ",
"        $ooo&&oo&&#########&ooo$oooooooooooooooooo$$            ",
"         $$ooooooo&&#######&ooo$ooooooooooooooooo$              ",
"           $$ooooooo&&#####&ooo$ooooooooooooooo$$               ",
"             $$ooooooo&####&ooo$oooooooooooooo$                 ",
"               $$oooooo&&##&ooo$oooooooooooo$$                  ",
"                 $$oooooo&#&ooo$oooooooooo$$                    ",
"                   $$ooooo&&ooo$ooooooooo$                      ",
"                     $$oooooooo$ooooooo$$                       ",
"                       $$oooooo$oooooo$                         ",
"                         $$oooo$oooo$$                          ",
"                           $$oo$ooo$                            ",
"                             $o$o$$                             ",
"                              $$$                               ",
"                                                                ",
"                                                                ",
"                                                                "
};
